<svg xmlns="http://www.w3.org/2000/svg" width="114" height="114" fill="none" viewBox="0 0 114 114">
    <path fill="currentColor" d="m94.5 1 1.442 1.386a2 2 0 0 0-2.58-3.031zM45 52.5l-1.442-1.386-1.23 1.28 1.124 1.373zM94.5 113l-1.26 1.553a2 2 0 0 0 2.808-2.819zM20 52.5l-1.137-1.645a2 2 0 0 0-.124 3.198zM94.5 1 93.058-.386l-49.5 51.5L45 52.5l1.442 1.386 49.5-51.5zM45 52.5l-1.548 1.267 49.5 60.499L94.5 113l1.548-1.266-49.5-60.5zm-25 0 1.137 1.645 74.5-51.5L94.5 1 93.363-.645l-74.5 51.5zM94.5 113l1.26-1.553-74.5-60.5L20 52.5l-1.26 1.553 74.5 60.5z" mask="url(#a)"/>
</svg>