<svg xmlns="http://www.w3.org/2000/svg" width="264" height="264" fill="none" viewBox="0 0 264 264">
    <path fill="currentColor" d="m8.546 186.64 66.585 6.606a.997.997 0 0 1 .789.535l5.436 10.485c.17.328.498.536.868.54 28.265.288 75.933-.806 79.409-.806 3.788 0 2.948-1.83 3.799-3.553.342-.693 1.105-1.021 1.866-1.16L256.171 183c2.01.287 2.592 1.708 2.39 3.042-.151 1.001-1.108 1.588-2.093 1.821l-54.123 12.843a6.89 6.89 0 0 0-4.739 3.937c-8.73 20.03-15.105 40.331-37.435 43.656-37.881 0-115.601-2.389-138.25-2.753A5.029 5.029 0 0 1 17 241.06l-3.271-29.029a2 2 0 0 1 1.806-2.216l1.948-.177a1 1 0 0 0 .788-1.475l-1.703-3.121A2 2 0 0 0 14.814 204h-1.75a2 2 0 0 1-1.941-1.516l-3.645-14.607a1 1 0 0 1 1.069-1.237ZM162.482 24.965c-8.303-2.184-10.049 1.075-12.85 1.737v-8.437c6.425-1.24 10.873-2.481 12.85-2.233 1.977.248 3.954 3.226 13.345 3.97 9.391.745 12.357-.248 15.322-.744-3.954 3.97-4.086 2.509-10.017 4.742 3.954 1.985 6.557 2.454 11.5 3.198-6.425 1.737-19.771.497-30.15-2.233Z"/>
    <path fill="currentColor" d="m152.132 58.5.5-.5s4.5 25 12.5 41c40 17 63.033 59.569 87 86h-.5c-2.5-2.5-6.5-7.725-11-10.5-9.747-2.609-42.856.53-54.5 8-3.977 2.551 1.5 15 1.5 15h-1.5l-34-139Z"/>
    <path fill="currentColor" d="M144.132 115s63.833 52.16 99.5 75.563h-.5c-2.5-1.488-6.5-4.597-11-6.248-9.747-1.552-52.356.741-64 5.185-2.133 1 0 10 0 10h-1l-8.858-70.369a3.001 3.001 0 0 0-.999-1.882l-13.643-11.952.5-.297ZM88.632 30.688v186.811l5 4.501V30.688c0-2.25-5-2.25-5 0Z"/>
    <path fill="currentColor" d="M148.633 19.688v186.811l5 4.501V19.688c0-2.25-5-2.25-5 0ZM7 178.348l83.633 7.152-1-82.5-62.852-9.192a1 1 0 0 0-1.048.56l-.712 1.496a1 1 0 0 0 .41 1.3l.385.217a1 1 0 0 1 .48 1.109L7.601 174.838a.651.651 0 0 1-.69.494.65.65 0 0 0-.705.59l-.119 1.341A1 1 0 0 0 7 178.348Z"/>
    <path fill="currentColor" d="m96.353 186.708 55.505 3.397-2.553-84.719-37.551-5.644a1 1 0 0 0-1.087.644l-.59 1.604a1 1 0 0 0 .398 1.186l.306.197a1 1 0 0 1 .442 1.023l-14.601 78.793a.53.53 0 0 1-.553.432.53.53 0 0 0-.56.497l-.093 1.532a1 1 0 0 0 .937 1.058ZM120.339 96.935c-13.555-11.552-48.255-3.853-55.068-3.853h-.345A1.926 1.926 0 0 1 63 91.156v-.264c0-.918.744-1.662 1.662-1.662.38 0 .73-.185.918-.514 4.305-7.538 9.83-32.57 2.247-42.828-1.27-1.72-.706-2.728-.423-2.888h41.514c1.271 0 1.694 1.444 1.271 2.888 23.208 23.437 10.15 44.792 10.15 47.194 0 1.285.568 1.285 1.136 1.927.568.642-.646 2.344-1.136 1.926Z"/>
    <path fill="currentColor" d="M181.132 104c-15.84-4.443-48.417-2.41-55.229-2.41h-.595c-.926 0-1.676-.75-1.676-1.676 0-.926.765-1.677 1.691-1.677.361 0 .704-.165.902-.468 4.303-6.584 9.81-28.336 2.234-37.255-1.271-1.497-.706-2.374-.423-2.514h41.514c1.27 0 1.694 1.257 1.27 2.514 23.209 20.399 10.312 38.395 10.312 40.486 0 .5.432.941 1 1.5.568.559-.51 1.864-1 1.5ZM165.632 57.5c-9-2.5-26.937-.676-30.734-.676h-.196a1.07 1.07 0 0 1-1.07-1.07v-.144c0-.512.415-.927.927-.927a.58.58 0 0 0 .511-.286c2.4-4.188 5.479-18.094 1.253-23.793-.709-.955-.394-1.515-.237-1.604h23.139c.709 0 .945.802.709 1.604 11.22 11.295 7.263 22.103 6.016 24.77-.172.368-.087.823.182 1.126.316.357-.227 1.232-.5 1Z"/>
    <path fill="currentColor" fill-rule="evenodd" d="m88.214 174.005-2.626 36.998h-1.449l.875-12-3.477-.002-1.455 12-1.45-.001 4.364-34.498 1.45-.999-1.455 12.499 2.898.001.875-12.999 1.45-.999Zm-6.387 22.997.873-7 3.188.001-.583 7-3.478-.001ZM148.581 178.005l-2.626 36.998h-1.449l.875-12-3.477-.002-1.455 12L139 215l4.363-34.498 1.45-.999-1.455 12.499 2.898.001.875-12.999 1.45-.999Zm-6.387 22.997.873-7 3.188.001-.583 7-3.478-.001ZM143.047 178.178l-7.145 36.397-1.438-.179 2.341-11.801-3.451-.428-2.916 11.73-1.438-.179 8.563-33.702 1.561-.814-2.978 12.227 2.876.357 2.464-12.794 1.561-.814Zm-9.159 22.039 1.725-6.839 3.163.392-1.437 6.876-3.451-.429Z" clip-rule="evenodd"/>
</svg>