<svg xmlns="http://www.w3.org/2000/svg" width="264" height="264" fill="none" viewBox="0 0 264 264">
    <path fill="currentColor" d="m78.575 198.584-.294-.981a4 4 0 0 0-3.488-2.836l-69.559-5.989c-1.484-.127-2.582 1.353-2.028 2.736l5.464 13.661a2.995 2.995 0 0 0 1.056 1.337l7.09 5.006a1 1 0 0 1 .33 1.24l-2.958 6.34a1.999 1.999 0 0 0-.188.846v24.085a2 2 0 0 0 1.97 2L117 247.5s35.5.164 52.5 0 21.5-7 26-15.5 7-16.056 9-18.5c2-2.444 3-3.5 5.5-6.5s1-5 3.5-6.5 10.605-3.729 14.5-4.56c5.673-1.21 12-2.44 12-2.44l19.5-4.5c2.5-1 1.652-4.801-.5-4l-50.5 9.5L178 197h-17.765a2 2 0 0 0-1.98 1.717l-.008.055a2.001 2.001 0 0 1-1.993 1.717l-75.776-.48a2 2 0 0 1-1.903-1.425Z"/>
    <path fill="currentColor" d="m195.483 107 57.679 82.202c-.477.096-1.521.278-1.888.234-8.597-6.873-11.446-11.842-22.774-10.436-9.912 1.23-20.688 12.103-25.517 17.5h-4.5c10.017-8 18.519-18.341 16.017-40-2.679-23.186-18.017-45-19.017-47.5v-2Z"/>
    <path fill="currentColor" fill-rule="evenodd" d="m105.518 179.008-3.21 22.893h-1.778l1.07-7.425-4.266-.002-1.781 7.424-1.778-.001 5.343-21.345 1.778-.618-1.781 7.734 3.555.001 1.07-8.043 1.778-.618Zm-7.828 14.228 1.069-4.331 3.91.002-.713 4.331-4.266-.002Z" clip-rule="evenodd"/>
    <path fill="currentColor" fill-rule="evenodd" d="M100.676 179.019 95.5 201.55l-1.771-.155 1.707-7.304-4.25-.371-2.416 7.243-1.77-.154 7.166-20.805 1.825-.462-2.443 7.551 3.542.309 1.761-7.921 1.825-.462Zm-9.028 13.499 1.439-4.222 3.896.339-1.085 4.254-4.25-.371ZM53.518 179.008l-3.21 22.893H48.53l1.07-7.425-4.266-.002-1.781 7.424-1.778-.001 5.343-21.345 1.778-.618-1.781 7.734 3.555.001 1.07-8.043 1.778-.618Zm-7.828 14.228 1.069-4.331 3.91.002-.713 4.331-4.266-.002Z" clip-rule="evenodd"/>
    <path fill="currentColor" fill-rule="evenodd" d="M48.676 179.019 43.5 201.55l-1.771-.155 1.707-7.304-4.25-.371-2.416 7.243-1.77-.154 7.166-20.805 1.825-.462-2.443 7.551 3.542.309 1.761-7.921 1.825-.462Zm-9.028 13.499 1.439-4.222 3.896.339-1.085 4.254-4.25-.371Z" clip-rule="evenodd"/>
    <path fill="currentColor" d="M131.374 34.783c-9.37-1.105-9.146.652-22.374 4.52v-13.5c6.614-1.768 11.35-9.804 14.106-8.7 6.614 2.763 12.126 5.526 19.291 2.21-1.323 3.537-4.593 6.63-6.063 7.736 3.307 2.762 3.859 2.762 7.166 4.42-3.528 3.093-9.554 3.499-12.126 3.314ZM54 59.382v152.933L59 216V59.382c0-1.843-5-1.843-5 0Z"/>
    <path fill="currentColor" d="M106 26.688v186.81l5 4.502V26.688c0-2.25-5-2.25-5 0ZM167 37.574v174.228l5 4.198V37.574c0-2.099-5-2.099-5 0ZM2 184h55v-60.5L12.434 98.603a1 1 0 0 0-1.443.58l-.356 1.158a1 1 0 0 0 .474 1.17l.295.162a1 1 0 0 1 .51 1.002l-9.855 77.86a.531.531 0 0 1-.527.465.532.532 0 0 0-.532.532V183a1 1 0 0 0 1 1ZM77.5 105c-15.5-2-37.5 2.5-47.23 1.5h-.593A1.677 1.677 0 0 1 28 104.823a1.69 1.69 0 0 1 1.691-1.676c.361 0 .71-.17.897-.479C33.86 97.248 35.454 79.769 34 72.5c-.132-.661-.58-.99-1.5-1-1.328-.014-1.5-2.5 0-2.5h41.418c1.27 0 1.694 1.257 1.27 2.514 13.56 15.486 4.915 28.238 2.76 30.952A.779.779 0 0 0 78 103.5c1 .5.32 1.73-.5 1.5Z"/>
    <path fill="currentColor" d="M129.5 182c-29.668 3.308-50.364 2.093-59.466 2.093h-.8a2.234 2.234 0 1 1 0-4.468h.033c.482 0 .935-.222 1.197-.627 5.378-8.336 11.3-35.581 3.536-48.498-.46-.766-.626-1-1.5-1-1.5 0-2-3.5 0-3.5h55.848c1.697 0 2.263 1.675 1.697 3.35C157 152.5 129.668 175.5 129 177.694c-.194.638.508.92 1.336 1.333 1.336.666.164 2.973-.836 2.973Z"/>
    <path fill="currentColor" d="M208.154 186.972c-21.162-5.921-64.018-1.879-73.12-1.879h-.8a2.234 2.234 0 1 1 0-4.468h.033c.482 0 .931-.226 1.218-.613 5.934-8.011 20.565-26.617 3.515-49.512-.327-.484-1.092-.092-1.5-.5-1-1-.5-3 .384-3h55.464c1.697 0 2.263 1.675 1.697 3.35 31.008 27.186 12.441 49.837 12.441 52.624 0 .666.508.92 1.336 1.333 1.336.666.426 2.971-.668 2.665ZM137.47 125.978c-15.414-4.638-46.63-1.472-53.26-1.472h-.46a1.75 1.75 0 0 1-1.75-1.75v-.117c0-.902.731-1.633 1.633-1.633.361 0 .698-.172.884-.481 3.887-6.464 8.35-27.788 2.983-38.025-.38-.726-1.117-.617-1.5-1-1.5-1.5 0-2.5.286-2.5h40.399c1.237 0 2.815 1.5 1.237 2.624C129 84.5 130 86.5 132.5 90c10.836 17.847 4.484 30.927 4.484 32.846 0 .522.37.721.973 1.044.973.522.31 2.328-.487 2.088ZM196.47 125.978c-15.414-4.638-46.63-1.472-53.26-1.472h-.46a1.75 1.75 0 0 1-1.75-1.75v-.117c0-.902.731-1.633 1.634-1.633.36 0 .696-.171.883-.478 4.189-6.863 9.557-29.588 2.181-38.904-1.237-1.562-.687-2.478-.412-2.624h40.399c1.237 0 1.649 1.312 1.237 2.624 22.586 21.296 9.062 39.039 9.062 41.222 0 .522.37.721.973 1.044.973.522.31 2.328-.487 2.088ZM128.308 77.984c-11.757-3.355-35.566-1.064-40.622-1.064h-.42A1.27 1.27 0 0 1 86 75.647c0-.693.562-1.26 1.256-1.26.27 0 .522-.125.668-.352 3.194-4.97 7.283-21.401 1.66-28.138-.944-1.13-.525-1.793-.315-1.898h30.813c.943 0 1.258.95.943 1.898 17.227 15.406 6.912 28.241 6.912 29.82 0 .378.282.522.742.756.742.377.237 1.684-.371 1.51ZM189.308 77.984c-11.757-3.355-35.566-1.064-40.622-1.064h-.42A1.27 1.27 0 0 1 147 75.647c0-.693.562-1.26 1.256-1.26a.784.784 0 0 0 .668-.352c3.194-4.97 7.283-21.401 1.659-28.138-.943-1.13-.524-1.793-.314-1.898h30.813c.943 0 1.258.95.943 1.898 17.227 15.406 6.912 28.241 6.912 29.82 0 .378.282.522.742.756.742.377.237 1.684-.371 1.51Z"/>
    <path fill="currentColor" fill-rule="evenodd" d="m165.518 179.008-3.21 22.893h-1.778l1.07-7.425-4.266-.002-1.781 7.424-1.778-.001 5.343-21.345 1.778-.618-1.781 7.734 3.555.001 1.07-8.043 1.778-.618Zm-7.828 14.228 1.069-4.331 3.91.002-.713 4.331-4.266-.002Z" clip-rule="evenodd"/>
    <path fill="currentColor" fill-rule="evenodd" d="M160.676 179.019 155.5 201.55l-1.771-.155 1.707-7.304-4.25-.371-2.415 7.243-1.771-.154 7.166-20.805 1.825-.462-2.443 7.551 3.542.309 1.761-7.921 1.825-.462Zm-9.028 13.499 1.439-4.222 3.896.339-1.085 4.254-4.25-.371Z" clip-rule="evenodd"/>
</svg>