<svg xmlns="http://www.w3.org/2000/svg" width="32" height="32" fill="none" viewBox="0 0 32 32">
    <path stroke="currentColor" stroke-linejoin="round" stroke-width="2" d="M15.932 14.923V9m0 0V4a2 2 0 0 0-2-2h-.224a2 2 0 0 0-2 2v14.5l-2.097-1.423S6.737 14.23 5.674 14c-.753-.163-1.468.114-1.969.407-.433.253-.483.817-.185 1.22l8.424 11.416a1 1 0 0 1 .195.594V30h12.643v-1.986q0-.168.054-.326l3.055-8.871a2 2 0 0 0 .109-.652v-3.829a2 2 0 0 0-1.235-1.848L24.38 11.5M15.932 9l.8-.265A2.925 2.925 0 0 1 20.156 10m0 0v5.5m0-5.5h2.059a2 2 0 0 1 1.558.746l.607.754m0 0V16"/>
</svg>