<svg xmlns="http://www.w3.org/2000/svg" width="264" height="264" fill="none" viewBox="0 0 264 264">
    <path fill="currentColor" d="M171 236.118H33s-9.5-.499-12-1.999-4.22-3.763-4.5-7c-1-11.5 10-24 3.5-30l-15.5-6.5c-1.6-3.2-1.501-5.001-1.001-5.001 18.333.334 58 1.501 62 1.501 5 0 7 .5 7.5 1 .482.481 4.054 4.362 6.7 7.625.19.236.478.374.781.374h60.832c.414 0 .784-.257.945-.638 2.48-5.84 5.837-5.544 7.743-5.862 3.577-.596 22.499-1.5 43.999-4.5 13.995-1.645 5.407-.154 15.501-1.5 8-1.5 47.6-8.6 50-9 2.4-.4 3.098 4.634 1.5 5-8 1.834-24.4 5.6-26 6-2 .5-23.636 4.664-26.501 6.001-4.666 2.176-.725 8.629-7.5 13-15.5 10-13.711 17.996-17.999 23.999-4 5.6-9.667 7.334-12 7.5Z"/>
    <path fill="currentColor" d="m111.397 29.232 13.776 166.939-5.984.44-12.28-167.05c-.11-1.495 4.378-1.825 4.488-.33ZM60.674 35.38l7.47 155.042 5.174 3.496-7.65-158.78c-.09-1.867-5.084-1.627-4.994.241Z"/>
    <path fill="currentColor" d="M132.556 35.306c-13.558-3.665-17.612-3.877-22.43-2.114-.167 1.41.076-.431.874 4.926 4.486-3.877 34.029 10.995 37 10.5-2.5-2-6.5-3-3-6 1.966-1.686 5.002-4.492 6-9.427-5.484 2.115-8.973 4.23-18.444 2.115ZM112.5 52.618c30 10.4 117.5 95 144 123h-.5c-5.5-5.5-10.925-12.334-17-15-23.005 2.191-55.5 5-77 12-4.5 1-9 2-10 17.5h-.5s10.5-114-34.5-135c-2.901-1.354-4.5-2-4.5-2v-.5Z"/>
    <path fill="currentColor" d="M113.306 54.803c20.044 12.463 67.898 103.358 84.303 132.665.056.101-.029.21-.144.203a.143.143 0 0 1-.115-.07c-2.922-4.928-5.746-10.816-9.005-14.236-.987-1.036-2.429-1.418-3.856-1.314l-.268.02c-15.714 1.145-36.698 2.675-51.129 8.426-3.152.802-4.592.621-9.092.621-.981-.063-1-.006 2.028-1.731.293-.167.481-.415.5-.752.407-7.087 4.85-90.304-9.028-119.017-.947-1.959-3.844-4.043-4.405-4.435a.22.22 0 0 1-.095-.181c0-.17.162-.288.306-.199ZM3 181.118h66l-1.791-59.958-53.81-25.546a1 1 0 0 0-1.384.61l-.38 1.234a1 1 0 0 0 .474 1.171l.295.162a1 1 0 0 1 .51 1.002l-9.855 77.86a.531.531 0 0 1-.527.465.531.531 0 0 0-.532.531v1.469a1 1 0 0 0 1 1ZM76.592 187.028l42.512-1.845-5.518-100.25-37.458-41.46c-.656-.725-1.856-.176-1.734.795l.07.559a1 1 0 0 0 .224.516l2.08 2.497a1 1 0 0 1 .232.64v134.912a.726.726 0 0 1-.726.726c-.4 0-.726.325-.725.726v1.185a1 1 0 0 0 1.043.999ZM11.774 92.73 65 117.617l-2-57.5-30.562-20.492a1 1 0 0 0-1.473.43l-.235.537a.603.603 0 0 0 .283.781.604.604 0 0 1 .295.753l-18.096 47.93a.541.541 0 0 1-.748.293.541.541 0 0 0-.716.221l-.425.767a1 1 0 0 0 .45 1.391Z"/>
</svg>