<svg xmlns="http://www.w3.org/2000/svg" width="264" height="264" viewBox="0 0 264 264" fill="none">
    <path d="M159.13 237H35.7262C35.7262 237 30.0562 236.977 28.4593 235.962C26.8624 234.947 18.8778 211.088 14.0871 205.504C10.8494 201.73 8.58425 199.811 7.45584 198.964C6.95237 198.586 6.59082 198.029 6.50297 197.406C6.02366 194.004 5.12143 189.349 4.50534 187C3.58731 183.5 4.10016 183.5 4.62902 183.5L4.63965 183.5C22.2424 183.805 57.0939 183.967 66.8875 183.995C68.2269 183.999 69.3933 184.888 69.7613 186.176L71.7124 193.005C71.9637 193.884 72.7798 194.481 73.6942 194.454L155.701 192.042C156.611 192.016 157.459 191.578 158.007 190.852L158.582 190.09C159.106 189.398 159.903 188.966 160.769 188.906L192.409 186.721C206.731 185.115 245.258 171.482 257.762 169.217C258.569 169.07 259.328 169.561 259.587 170.339C259.891 171.251 259.387 172.235 258.469 172.522L196.141 192C196.141 192 193 199.892 189.641 204.5C185.493 210.189 180.283 207.5 177.141 218.5C171.756 237.347 161.47 237.21 159.676 237.035C159.493 237.017 159.314 237 159.13 237Z" fill="currentColor"/>
    <path d="M127.64 27.125L129.14 194.625H123.14V27.125C123.14 25.625 127.64 25.625 127.64 27.125Z" fill="currentColor"/>
    <path d="M151.64 91C139.701 82.0043 109.14 88 103.14 88H102.64C101.811 88 101.14 87.3236 101.14 86.4951C101.14 85.6721 101.807 85 102.63 85C102.95 85 103.249 84.8525 103.422 84.5834C107.213 78.6944 112.064 59.2295 105.391 51.2489C104.272 49.9101 104.769 49.1249 105.018 49H141.58C142.7 49 143.073 50.1245 142.7 51.2489C163.14 69.5 151.64 86.129 151.64 88C151.64 89 152.14 89 152.64 89.5C153.14 90 152.071 91.3253 151.64 91Z" fill="currentColor"/>
    <path d="M149.897 31.5942C135.016 29.7613 130.567 29.6556 125.278 30.5367C125.096 31.2417 124.95 33.3212 125.825 36C130.749 34.0614 137.861 34.2377 141.143 34.4139C146.614 34.7076 152.359 35.6475 161.933 34.4139C164.669 34.0614 172.545 33.004 173.64 30.5367C167.64 33.4508 160.292 32.6516 149.897 31.5942Z" fill="currentColor"/>
    <path d="M127.639 39C144.639 48.5 220.639 115.5 252.639 171L251.639 171C232.366 137.832 219.133 157.254 201.628 175.004C200.984 175.657 200.509 176.469 200.408 177.381C200.09 180.266 200.438 184.294 200.11 186.998C201.052 186.93 200.277 187.021 200.106 187.035C200.107 187.023 200.109 187.011 200.11 186.998C199.985 187.008 199.83 187.02 199.639 187.035C199.639 81.1951 127.639 39.5 127.639 39.5C127.139 39.5231 127.639 39 127.639 39Z" fill="currentColor"/>
    <path d="M125.38 48.0962C138.164 58.5015 193.649 128.367 215.16 183.759L214.37 183.679C202.591 153.612 178.803 175.887 174.424 180.217C174.229 180.41 174.086 180.631 173.993 180.89C172.463 185.174 173.549 189.238 172.582 194.776C173.33 194.786 172.712 194.811 172.576 194.81C172.578 194.799 172.58 194.787 172.582 194.776C172.482 194.775 172.359 194.774 172.207 194.773C179.389 94.0312 125.346 48.5721 125.346 48.5721C124.95 48.5541 125.38 48.0962 125.38 48.0962Z" fill="currentColor"/>
    <path d="M14.4204 171H123.14L125.14 101.5L31.0067 74.7464C30.514 74.6064 29.9951 74.8613 29.8049 75.3369L29.4814 76.1457C29.2882 76.6286 29.4975 77.1789 29.9626 77.4115L30.4692 77.6648C30.8665 77.8634 31.0852 78.3005 31.0059 78.7376L14.7318 168.492C14.6785 168.786 14.4221 169 14.1229 169C13.8389 169 13.5913 169.193 13.5224 169.469L13.4503 169.757C13.2925 170.389 13.7699 171 14.4204 171Z" fill="currentColor"/>
    <path d="M115.904 63.0159C126.403 73.1358 170.116 138.797 184.935 189.161L184.244 189.03C166.64 169 151.64 182 148.64 186.5C146.768 190.266 147.84 190.712 146.533 195.644C147.192 195.709 146.645 195.684 146.525 195.674C146.528 195.664 146.53 195.654 146.533 195.644C146.445 195.635 146.336 195.625 146.202 195.613C160.113 107.508 115.838 63.4321 115.838 63.4321C115.49 63.3863 115.904 63.0159 115.904 63.0159Z" fill="currentColor"/>
    <path fill-rule="evenodd" clip-rule="evenodd" d="M121.721 160.005L119.095 197.003L117.646 197.003L118.521 185.003L115.043 185.001L113.589 197.001L112.14 197L116.503 162.502L117.952 161.503L116.498 174.002L119.396 174.003L120.271 161.004L121.721 160.005ZM115.334 183.002L116.207 176.002L119.395 176.003L118.812 183.003L115.334 183.002Z" fill="currentColor"/>
    <path fill-rule="evenodd" clip-rule="evenodd" d="M116.463 160.546L110.32 197.125L108.878 196.987L110.893 185.125L107.432 184.792L104.839 196.598L103.397 196.459L111.031 162.534L112.569 161.678L109.928 173.981L112.813 174.259L114.924 161.402L116.463 160.546ZM107.912 182.829L109.448 175.944L112.621 176.25L111.374 183.162L107.912 182.829Z" fill="currentColor"/>
</svg>